# OpenChamp Navigation Mesh
# Scene: debug1
# Vertices: 55
# Faces: 53

v -17.256357 0.479757 2.562764
v -17.756357 0.479757 2.062764
v -17.756357 0.479757 -2.187236
v -17.256357 0.479757 -2.687236
v 17.243643 0.479757 -2.687236
v 17.743643 0.479757 -2.187236
v 17.243643 0.479757 2.562764
v 17.243643 0.479757 4.062764
v -17.256357 0.479757 4.062764
v -19.506357 0.479757 2.062764
v -19.506357 0.479757 -2.187236
v -22.006357 0.479757 -1.687236
v -22.756357 0.729757 1.062764
v -17.256357 0.479757 -4.187236
v 17.243643 0.479757 -4.187236
v 17.743643 0.479757 2.062764
v 21.993643 0.479757 -1.687236
v 19.493643 0.479757 -2.187236
v 22.743643 0.729757 1.062764
v 19.493643 0.479757 2.062764
v 17.743643 0.479757 4.562764
v -17.756357 0.479757 4.562764
v -22.006357 0.479757 1.812764
v -20.006357 0.479757 2.562764
v -20.006357 0.479757 -2.687236
v -22.756357 0.729757 -1.187236
v -22.006357 0.479757 -2.687236
v -17.756357 0.479757 -4.687236
v 17.743643 0.479757 -4.687236
v 22.743643 0.729757 -1.187236
v 21.993643 0.479757 -2.687236
v 19.993643 0.479757 -2.687236
v 21.993643 0.479757 1.812764
v 19.993643 0.479757 2.562764
v -22.006357 0.479757 2.812764
v -20.006357 0.479757 4.062764
v -20.006357 0.479757 -4.187236
v -20.506357 0.479757 -3.687236
v -22.006357 0.479757 -3.687236
v -22.756357 0.479757 -3.687236
v 22.743643 0.479757 -3.437236
v 21.993643 0.479757 -3.687236
v 20.493643 0.479757 -3.687236
v 19.993643 0.479757 -4.187236
v 21.993643 0.479757 2.812764
v 22.243643 0.479757 3.812764
v 19.993643 0.479757 4.062764
v -22.756357 0.479757 3.312764
v -22.506357 0.479757 4.062764
v -22.506357 0.479757 -4.187236
v 22.993643 0.479757 -4.687236
v 22.493643 0.479757 -4.687236
v 22.743643 0.479757 3.312764
v 22.493643 0.479757 4.562764
v 22.993643 0.479757 4.562764

f 1 2 3
f 6 16 7
f 3 4 1
f 1 4 5
f 1 5 6
f 1 6 7
f 15 5 14
f 14 5 4
f 8 21 9
f 9 21 22
f 14 28 15
f 15 28 29
f 7 8 1
f 1 8 9
f 54 46 55
f 55 46 53
f 33 45 34
f 53 46 45
f 45 46 34
f 34 46 47
f 32 44 43
f 52 51 42
f 42 51 41
f 34 20 33
f 33 20 19
f 41 31 42
f 42 31 43
f 43 31 32
f 18 17 6
f 6 17 19
f 6 19 20
f 6 20 16
f 17 30 19
f 31 17 32
f 32 17 18
f 50 39 40
f 40 39 27
f 24 35 23
f 38 37 25
f 48 35 49
f 49 35 36
f 36 35 24
f 39 38 27
f 27 38 25
f 13 26 12
f 27 25 12
f 12 25 11
f 24 23 10
f 10 23 13
f 11 3 12
f 12 3 13
f 13 3 10
f 10 3 2
